<svg width="95" height="31" viewBox="0 0 95 31" fill="none" xmlns="http://www.w3.org/2000/svg">
<path d="M0 11L8.13122 22.6032V30.792H12.4683V22.6032L20.6253 11H15.2601L10.3126 18.0762L5.36524 11H0Z" fill="#22202C"/>
<path fill-rule="evenodd" clip-rule="evenodd" d="M49.3144 11V30.792H53.6517V11H49.3144Z" fill="#22202C"/>
<path fill-rule="evenodd" clip-rule="evenodd" d="M66.6631 30.792H71V16.1523L66.6631 16.1477V17.118C65.8577 16.5651 64.9474 16.1752 63.982 15.9755C62.5442 15.6794 61.051 15.8258 59.698 16.3954C58.3346 16.9699 57.1731 17.9381 56.3614 19.1769C55.5405 20.4262 55.1012 21.8881 55.0974 23.3837C55.0924 24.3811 55.2877 25.3685 55.6597 26.2937C56.0284 27.2152 56.5743 28.0554 57.2659 28.7667C57.9524 29.471 58.7713 30.0322 59.6754 30.4188C60.8016 30.8966 62.0298 31.0834 63.2467 30.9617C64.4641 30.8399 65.631 30.4138 66.6405 29.722L66.6631 29.7066V30.792ZM63.1581 19.9183C65.0423 19.9183 66.5313 21.4386 66.5313 23.3837C66.5288 24.0692 66.3222 24.738 65.9388 25.3055C65.555 25.873 65.0116 26.3137 64.3771 26.5706C63.7485 26.8516 63.0439 26.9146 62.3758 26.749C61.5343 26.5731 60.7894 26.0882 60.2863 25.3906C59.7833 24.6926 59.559 23.8315 59.6569 22.9768C59.7547 22.1216 60.1679 21.3339 60.8158 20.7681C61.4633 20.2023 62.2986 19.8995 63.1581 19.9183Z" fill="#22202C"/>
<path fill-rule="evenodd" clip-rule="evenodd" d="M32.6085 23.3841C32.6144 21.8847 33.0637 20.4208 33.8998 19.1769C34.7354 17.9331 35.9208 16.9649 37.3057 16.3954C38.6906 15.8258 40.2127 15.6794 41.6803 15.9755C43.1479 16.2719 44.495 16.9966 45.5515 18.0591C46.608 19.1215 47.3265 20.4737 47.6162 21.9448C47.906 23.4154 47.7544 24.9394 47.18 26.3242C46.6055 27.7089 45.6343 28.8918 44.3888 29.7241C43.1433 30.5564 41.6799 31.0004 40.1825 31C39.1852 31 38.198 30.8028 37.2771 30.4196C36.3562 30.0364 35.5198 29.4752 34.8164 28.7676C34.1126 28.06 33.5554 27.2202 33.1767 26.2962C32.7975 25.3726 32.6047 24.3828 32.6085 23.3841ZM42.2804 26.0556C43.0425 25.4514 43.5317 24.517 43.5317 23.4679C43.5317 21.6462 42.0574 20.1697 40.2388 20.1697C38.4201 20.1697 36.9458 21.6462 36.9458 23.4679C36.9458 25.2892 38.4201 26.7657 40.2388 26.7657C41.0097 26.7657 41.7194 26.5001 42.2804 26.0556Z" fill="#22202C"/>
<path fill-rule="evenodd" clip-rule="evenodd" d="M16.2241 23.3841C16.2298 21.8847 16.679 20.4208 17.5149 19.1769C18.3508 17.9331 19.5361 16.9649 20.9209 16.3954C22.3057 15.8258 23.828 15.6794 25.2957 15.9755C26.7633 16.2719 28.1104 16.9966 29.1669 18.0591C30.2234 19.1215 30.9419 20.4737 31.2316 21.9448C31.5214 23.4154 31.3698 24.9394 30.7949 26.3242C30.2205 27.7089 29.2496 28.8918 28.0042 29.7241C26.7587 30.5564 25.295 31.0004 23.7979 31C22.8008 31 21.8134 30.8028 20.8925 30.4196C19.9716 30.0364 19.1353 29.4752 18.4316 28.7676C17.7279 28.06 17.1706 27.2202 16.7918 26.2962C16.413 25.3726 16.22 24.3828 16.2241 23.3841ZM25.8957 26.0556C26.658 25.4514 27.1471 24.517 27.1471 23.4679C27.1471 21.6462 25.6728 20.1697 23.8541 20.1697C22.0354 20.1697 20.5611 21.6462 20.5611 23.4679C20.5611 25.2892 22.0354 26.7657 23.8541 26.7657C24.6253 26.7657 25.3346 26.5001 25.8957 26.0556Z" fill="#22202C"/>
<g clip-path="url(#clip0_22_101)">
<path d="M82.4033 1.20001C81.2705 3.54847 80.9819 6.13135 80.3245 8.57953C79.9321 10.0408 79.4322 11.4796 79.1888 12.9645C78.978 14.25 78.5808 15.544 78.4841 16.8393C78.4674 17.0625 78.3192 17.2377 78.4435 17.0697C78.9372 16.402 79.3224 15.6535 79.7617 14.9595C81.6399 11.9921 84.0517 9.37441 86.6013 6.76963C87.4316 5.92129 88.4416 5.06689 89.0451 4.08765C89.0795 4.03172 89.3163 3.6375 89.1566 3.80794C88.596 4.40633 87.8924 5.00416 87.1894 5.49033C86.1247 6.22669 84.7061 6.83065 83.3513 7.11517C81.6228 7.47811 79.7876 7.45405 78.0227 7.64167C77.0807 7.74181 76.1562 7.92409 75.2138 8.02831C74.624 8.09359 73.9822 8.10655 73.419 8.27101C73.0554 8.37721 72.6694 8.48839 72.3289 8.63713C71.9154 8.81779 72.6055 8.83423 72.8765 8.86333C76.2409 9.22459 79.5989 9.55777 82.9508 10.011C84.7444 10.2535 86.5402 10.4394 88.315 10.7679C89.687 11.0218 91.0127 11.4256 92.3508 11.7715C92.8212 11.8932 93.2706 12.0519 93.7197 12.2158C93.7948 12.2432 94.1421 12.3747 93.9681 12.2158C93.0484 11.3763 91.5806 10.8669 90.3734 10.373C88.0318 9.41485 85.6544 8.52613 83.2854 7.61287C81.0669 6.75757 78.6746 6.15793 76.5168 5.20651C76.2082 5.07044 75.6032 4.86421 75.3963 4.60594C75.2947 4.47913 75.6285 4.60931 75.6498 4.62239C76.3715 5.06549 76.9989 5.7004 77.5866 6.25129C79.1752 7.74037 80.8562 9.16549 82.4539 10.6486C84.2124 12.2809 85.9518 13.9468 87.9702 15.375C88.9327 16.056 90.0341 16.5751 90.9819 17.2671" stroke="url(#paint0_linear_22_101)" stroke-width="1.8" stroke-linecap="round"/>
</g>
<defs>
<linearGradient id="paint0_linear_22_101" x1="94.0164" y1="9.23353" x2="72.2" y2="9.23359" gradientUnits="userSpaceOnUse">
<stop stop-color="#DFFF1A"/>
<stop offset="0.989583" stop-color="#44E5E7"/>
</linearGradient>
<clipPath id="clip0_22_101">
<rect width="24" height="18.6" fill="white" transform="translate(71)"/>
</clipPath>
</defs>
</svg>
